<svg xmlns="http://www.w3.org/2000/svg" viewBox="0 0 670.43954 600.46949"><defs><style>.cls-1{fill:#d9dfe5;}.cls-2{fill:#b6c1ce;}.cls-3{fill:#a0afc0;}.cls-4{fill:#607389;}.cls-5{fill:#eb7161;}.cls-6{fill:#9dacbd;}.cls-7{fill:#5b6f86;}.cls-8{fill:#9aaabb;}.cls-9{fill:#e33720;}.cls-10{fill:#26405e;}.cls-11{fill:#c1cbd6;}.cls-12{fill:#f0f2f2;}.cls-13{fill:#a4adb0;}.cls-14{fill:#b0bcca;}.cls-15{fill:#1f3a59;}.cls-16{fill:#dce1e8;}.cls-17{fill:#98a8ba;}.cls-18{fill:#556981;}.cls-19{fill:#fff;}</style></defs><g id="Camada_2" data-name="Camada 2"><g id="Camada_2-2" data-name="Camada 2"><path class="cls-1" d="M185.357,533.86506a36.32165,36.32165,0,1,1,36.32013-36.32165A36.3213,36.3213,0,0,1,185.357,533.86506Zm83.154-26.44286V488.30633l-24.08277-6.69281a60.78773,60.78773,0,0,0-5.77256-14.10388L250.914,445.82285l-13.51671-13.51939-21.56456,12.19a60.90884,60.90884,0,0,0-14.29792-5.95557l-6.6199-23.82989H175.79906l-6.61987,23.82989a60.90472,60.90472,0,0,0-14.29832,5.95557l-21.56456-12.19-13.51674,13.51939,12.25879,21.68679a60.82325,60.82325,0,0,0-5.77375,14.10388l-24.082,6.69281V507.4222l24.27646,6.74251a60.80329,60.80329,0,0,0,5.758,13.7333L119.79957,549.9019l13.51674,13.51937L155.447,550.91039a60.68347,60.68347,0,0,0,13.5404,5.585l6.81167,24.52134h19.11585l6.81128-24.52134a60.69047,60.69047,0,0,0,13.5404-5.585l22.1307,12.51088L250.914,549.9019,238.47648,527.898a60.83713,60.83713,0,0,0,5.7657-13.7371L268.511,507.4222Z" transform="translate(-46.90186 -81.56255)"/><path class="cls-1" d="M79.62114,480.60883a15.86461,15.86461,0,1,1,19.06964-11.81946,15.86523,15.86523,0,0,1-19.06964,11.81946Zm37.9987-2.94532,1.90815-8.12919-9.57244-5.24889a26.50978,26.50978,0,0,0-1.04711-6.57058l7.37818-7.99927-4.39849-7.09781-10.38652,3.02937a26.52325,26.52325,0,0,0-5.48529-3.95765l-.43587-10.79566L87.452,428.9876l-5.19381,9.47006a26.697,26.697,0,0,0-6.67413,1.104L67.631,432.22707l-7.097,4.40079,3.0473,10.44418a26.59557,26.59557,0,0,0-3.8629,5.4207l-10.908.43934-1.90852,8.1292,9.64961,5.29087a26.54025,26.54025,0,0,0,1.07765,6.414l-7.4855,8.11773,4.39845,7.09776,10.6589-3.10956a26.51275,26.51275,0,0,0,5.20034,3.72461l.44808,11.10893,8.12883,1.90621,5.344-9.74512a26.62362,26.62362,0,0,0,6.3154-1.02379l8.16166,7.52563,7.097-4.397-3.092-10.597a26.55414,26.55414,0,0,0,3.8228-5.268l10.99276-.44315Z" transform="translate(-46.90186 -81.56255)"/><polygon class="cls-2" points="211.078 483.123 210.114 483.123 210.114 107.694 211.078 107.694 211.078 483.123 211.078 483.123"/><path class="cls-3" d="M147.20051,210.86355h0a3.78536,3.78536,0,1,1,3.78538-3.78538,3.78543,3.78543,0,0,1-3.78538,3.78538Z" transform="translate(-46.90186 -81.56255)"/><path class="cls-2" d="M187.00537,208.855h-31.5599a1.52409,1.52409,0,0,1-1.52422-1.52423v-.8141a1.5243,1.5243,0,0,1,1.52422-1.52423h31.5599a1.52428,1.52428,0,0,1,1.52423,1.52423v.8141a1.52408,1.52408,0,0,1-1.52423,1.52423Z" transform="translate(-46.90186 -81.56255)"/><path class="cls-3" d="M147.20051,253.35129h0a3.78536,3.78536,0,1,1,3.78538-3.785,3.78535,3.78535,0,0,1-3.78538,3.785Z" transform="translate(-46.90186 -81.56255)"/><path class="cls-2" d="M187.00537,251.343h-31.5599a1.52438,1.52438,0,0,1-1.52422-1.5246v-.81368a1.52409,1.52409,0,0,1,1.52422-1.52427h31.5599a1.52408,1.52408,0,0,1,1.52423,1.52427v.81368a1.52436,1.52436,0,0,1-1.52423,1.5246Z" transform="translate(-46.90186 -81.56255)"/><path class="cls-3" d="M147.20051,308.66271h0a3.78535,3.78535,0,1,1,3.78538-3.78495,3.7853,3.7853,0,0,1-3.78538,3.78495Z" transform="translate(-46.90186 -81.56255)"/><path class="cls-2" d="M187.00537,306.65449h-31.5599a1.5244,1.5244,0,0,1-1.52422-1.52459v-.81406a1.524,1.524,0,0,1,1.52422-1.52385h31.5599a1.524,1.524,0,0,1,1.52423,1.52385v.81406a1.52438,1.52438,0,0,1-1.52423,1.52459Z" transform="translate(-46.90186 -81.56255)"/><path class="cls-3" d="M147.20051,322.95415h0a3.78517,3.78517,0,1,1,3.78538-3.78532,3.78538,3.78538,0,0,1-3.78538,3.78532Z" transform="translate(-46.90186 -81.56255)"/><path class="cls-2" d="M187.00537,320.94556h-31.5599a1.52406,1.52406,0,0,1-1.52422-1.52422v-.81369a1.52438,1.52438,0,0,1,1.52422-1.52464h31.5599a1.52437,1.52437,0,0,1,1.52423,1.52464v.81369a1.524,1.524,0,0,1-1.52423,1.52422Z" transform="translate(-46.90186 -81.56255)"/><path class="cls-3" d="M157.7066,221.98772h0a3.78535,3.78535,0,1,1,3.78538-3.78533,3.7854,3.7854,0,0,1-3.78538,3.78533Z" transform="translate(-46.90186 -81.56255)"/><path class="cls-2" d="M197.51147,219.97913H165.95156a1.52452,1.52452,0,0,1-1.52422-1.52422v-.81411a1.52428,1.52428,0,0,1,1.52422-1.52422h31.55991a1.524,1.524,0,0,1,1.52422,1.52422v.81411a1.52428,1.52428,0,0,1-1.52422,1.52422Z" transform="translate(-46.90186 -81.56255)"/><path class="cls-3" d="M157.7066,233.11153h0a3.78517,3.78517,0,1,1,3.78538-3.785,3.78509,3.78509,0,0,1-3.78538,3.785Z" transform="translate(-46.90186 -81.56255)"/><path class="cls-2" d="M210.64386,231.10331h-44.6923a1.52452,1.52452,0,0,1-1.52422-1.52423v-.8141a1.52428,1.52428,0,0,1,1.52422-1.52422h44.6923a1.52406,1.52406,0,0,1,1.52425,1.52422v.8141a1.5243,1.5243,0,0,1-1.52425,1.52423Z" transform="translate(-46.90186 -81.56255)"/><path class="cls-3" d="M157.7066,264.01208h0a3.78536,3.78536,0,1,1,3.78538-3.78538,3.78518,3.78518,0,0,1-3.78538,3.78538Z" transform="translate(-46.90186 -81.56255)"/><path class="cls-2" d="M220.99562,262.00344H165.95156a1.52428,1.52428,0,0,1-1.52422-1.52422v-.81406a1.52452,1.52452,0,0,1,1.52422-1.52423h55.04406a1.52428,1.52428,0,0,1,1.52422,1.52423v.81406a1.524,1.524,0,0,1-1.52422,1.52422Z" transform="translate(-46.90186 -81.56255)"/><path class="cls-3" d="M157.7066,275.13621h0a3.78533,3.78533,0,1,1,3.78538-3.78533,3.7854,3.7854,0,0,1-3.78538,3.78533Z" transform="translate(-46.90186 -81.56255)"/><path class="cls-2" d="M202.14641,273.12761H165.95156a1.52452,1.52452,0,0,1-1.52422-1.52422v-.81406a1.52425,1.52425,0,0,1,1.52422-1.52422h36.19485a1.524,1.524,0,0,1,1.5242,1.52422v.81406a1.52427,1.52427,0,0,1-1.5242,1.52422Z" transform="translate(-46.90186 -81.56255)"/><path class="cls-3" d="M167.415,285.28283h0a2.98752,2.98752,0,1,1,2.98736-2.98773,2.98766,2.98766,0,0,1-2.98736,2.98773Z" transform="translate(-46.90186 -81.56255)"/><path class="cls-2" d="M235.8276,283.69752H174.2435a1.52423,1.52423,0,0,1,0-3.04845h61.5841a1.52423,1.52423,0,0,1,0,3.04845Z" transform="translate(-46.90186 -81.56255)"/><path class="cls-3" d="M167.415,294.06261h0a2.98752,2.98752,0,1,1,2.98736-2.98768,2.98767,2.98767,0,0,1-2.98736,2.98768Z" transform="translate(-46.90186 -81.56255)"/><path class="cls-2" d="M210.64386,292.47726H174.2435a1.52423,1.52423,0,0,1,0-3.04845h36.40036a1.52423,1.52423,0,1,1,0,3.04845Z" transform="translate(-46.90186 -81.56255)"/><path class="cls-3" d="M147.20051,338.946h0a3.78536,3.78536,0,1,1,3.78538-3.78538,3.78567,3.78567,0,0,1-3.78538,3.78538Z" transform="translate(-46.90186 -81.56255)"/><path class="cls-2" d="M187.00537,336.93731h-31.5599a1.5243,1.5243,0,0,1-1.52422-1.52423v-.814a1.52406,1.52406,0,0,1,1.52422-1.52423h31.5599a1.524,1.524,0,0,1,1.52423,1.52423v.814a1.52428,1.52428,0,0,1-1.52423,1.52423Z" transform="translate(-46.90186 -81.56255)"/><path class="cls-3" d="M147.20051,381.43366h0a3.78518,3.78518,0,1,1,3.78538-3.78537,3.78543,3.78543,0,0,1-3.78538,3.78537Z" transform="translate(-46.90186 -81.56255)"/><path class="cls-2" d="M187.00537,379.42505h-31.5599a1.52407,1.52407,0,0,1-1.52422-1.52423v-.81408a1.52408,1.52408,0,0,1,1.52422-1.52425h31.5599a1.52406,1.52406,0,0,1,1.52423,1.52425v.81408a1.52406,1.52406,0,0,1-1.52423,1.52423Z" transform="translate(-46.90186 -81.56255)"/><path class="cls-3" d="M147.20051,436.74623h0a3.78573,3.78573,0,1,1,3.78538-3.78575,3.78646,3.78646,0,0,1-3.78538,3.78575Z" transform="translate(-46.90186 -81.56255)"/><path class="cls-2" d="M187.00537,434.73685h-31.5599a1.525,1.525,0,0,1-1.52422-1.52423v-.81368a1.52262,1.52262,0,0,1,1.52422-1.52423h31.5599a1.5226,1.5226,0,0,1,1.52423,1.52423v.81368a1.525,1.525,0,0,1-1.52423,1.52423Z" transform="translate(-46.90186 -81.56255)"/><path class="cls-3" d="M147.20051,451.03732h0a3.78577,3.78577,0,1,1,3.78538-3.78577,3.78651,3.78651,0,0,1-3.78538,3.78577Z" transform="translate(-46.90186 -81.56255)"/><path class="cls-2" d="M187.00537,449.02791h-31.5599a1.525,1.525,0,0,1-1.52422-1.52422V446.69a1.525,1.525,0,0,1,1.52422-1.52422h31.5599A1.525,1.525,0,0,1,188.5296,446.69v.81369a1.525,1.525,0,0,1-1.52423,1.52422Z" transform="translate(-46.90186 -81.56255)"/><path class="cls-3" d="M157.7066,350.0697h0a3.78514,3.78514,0,1,1,3.78538-3.785,3.78505,3.78505,0,0,1-3.78538,3.785Z" transform="translate(-46.90186 -81.56255)"/><path class="cls-2" d="M197.51147,348.06148H165.95156a1.52428,1.52428,0,0,1-1.52422-1.52422v-.81406a1.52425,1.52425,0,0,1,1.52422-1.52422h31.55991a1.524,1.524,0,0,1,1.52422,1.52422v.81406a1.524,1.524,0,0,1-1.52422,1.52422Z" transform="translate(-46.90186 -81.56255)"/><path class="cls-3" d="M157.7066,361.19425h0a3.78535,3.78535,0,1,1,3.78538-3.7857,3.78548,3.78548,0,0,1-3.78538,3.7857Z" transform="translate(-46.90186 -81.56255)"/><path class="cls-2" d="M210.64386,359.18529h-44.6923a1.5242,1.5242,0,0,1-1.52422-1.52385v-.81406a1.5246,1.5246,0,0,1,1.52422-1.5246h44.6923a1.52438,1.52438,0,0,1,1.52425,1.5246v.81406a1.524,1.524,0,0,1-1.52425,1.52385Z" transform="translate(-46.90186 -81.56255)"/><path class="cls-3" d="M157.7066,392.09289h0a3.78382,3.78382,0,1,1,3.78538-3.78572,3.78379,3.78379,0,0,1-3.78538,3.78572Z" transform="translate(-46.90186 -81.56255)"/><path class="cls-2" d="M220.99562,390.08738H165.95156a1.52528,1.52528,0,0,1-1.52422-1.52427v-.81749a1.52526,1.52526,0,0,1,1.52422-1.52422h55.04406a1.525,1.525,0,0,1,1.52422,1.52422v.81749a1.525,1.525,0,0,1-1.52422,1.52427Z" transform="translate(-46.90186 -81.56255)"/><path class="cls-3" d="M157.7066,403.21709h0a3.78382,3.78382,0,1,1,3.78538-3.78573,3.78376,3.78376,0,0,1-3.78538,3.78573Z" transform="translate(-46.90186 -81.56255)"/><path class="cls-2" d="M202.14641,401.21153H165.95156a1.52524,1.52524,0,0,1-1.52422-1.52422v-.81754a1.52527,1.52527,0,0,1,1.52422-1.52422h36.19485a1.525,1.525,0,0,1,1.5242,1.52422v.81754a1.525,1.525,0,0,1-1.5242,1.52422Z" transform="translate(-46.90186 -81.56255)"/><path class="cls-3" d="M167.415,413.36329h0a2.98732,2.98732,0,1,1,2.98736-2.98733,2.98706,2.98706,0,0,1-2.98736,2.98733Z" transform="translate(-46.90186 -81.56255)"/><path class="cls-2" d="M235.8276,411.78178H174.2435a1.52614,1.52614,0,0,1,0-3.05227h61.5841a1.52614,1.52614,0,0,1,0,3.05227Z" transform="translate(-46.90186 -81.56255)"/><path class="cls-3" d="M167.415,422.14578h0a2.98735,2.98735,0,1,1,2.98736-2.9874,2.98712,2.98712,0,0,1-2.98736,2.9874Z" transform="translate(-46.90186 -81.56255)"/><path class="cls-2" d="M210.64386,420.5604H174.2435a1.52422,1.52422,0,1,1,0-3.04844h36.40036a1.52422,1.52422,0,1,1,0,3.04844Z" transform="translate(-46.90186 -81.56255)"/><path class="cls-4" d="M270.24877,206.92387h0a3.083,3.083,0,1,1,3.08281-3.08324,3.08347,3.08347,0,0,1-3.08281,3.08324Z" transform="translate(-46.90186 -81.56255)"/><path class="cls-5" d="M316.51377,206.92387H285.61135a3.083,3.083,0,1,1,0-6.166h30.90242a3.083,3.083,0,1,1,0,6.166Z" transform="translate(-46.90186 -81.56255)"/><path class="cls-6" d="M393.28094,206.92387H331.83821a3.083,3.083,0,1,1,0-6.166h61.44273a3.083,3.083,0,0,1,0,6.166Z" transform="translate(-46.90186 -81.56255)"/><path class="cls-4" d="M270.24877,225.071h0a3.08324,3.08324,0,1,1,3.08281-3.08324,3.08347,3.08347,0,0,1-3.08281,3.08324Z" transform="translate(-46.90186 -81.56255)"/><path class="cls-7" d="M371.82755,225.071h-86.2162a3.08324,3.08324,0,0,1,0-6.16647h86.2162a3.08324,3.08324,0,0,1,0,6.16647Z" transform="translate(-46.90186 -81.56255)"/><path class="cls-5" d="M543.98452,225.071h-156.831a3.08324,3.08324,0,1,1,0-6.16647h156.831a3.08324,3.08324,0,0,1,0,6.16647Z" transform="translate(-46.90186 -81.56255)"/><path class="cls-4" d="M270.24877,243.21763h0a3.08313,3.08313,0,0,1-3.08323-3.08277v-.00042a3.083,3.083,0,0,1,6.166,0v.00042a3.08281,3.08281,0,0,1-3.08281,3.08277Z" transform="translate(-46.90186 -81.56255)"/><path class="cls-7" d="M316.51377,243.21763H285.61135a3.0829,3.0829,0,0,1-3.08323-3.08277v-.00042a3.08291,3.08291,0,0,1,3.08323-3.08286h30.90242a3.0829,3.0829,0,0,1,3.08323,3.08286v.00042a3.08288,3.08288,0,0,1-3.08323,3.08277Z" transform="translate(-46.90186 -81.56255)"/><path class="cls-4" d="M270.24877,261.36472h0a3.08321,3.08321,0,1,1,3.08281-3.08319,3.08319,3.08319,0,0,1-3.08281,3.08319Z" transform="translate(-46.90186 -81.56255)"/><path class="cls-6" d="M300.89716,261.36472H285.61135a3.08321,3.08321,0,1,1,0-6.16642h15.28581a3.08321,3.08321,0,1,1,0,6.16642Z" transform="translate(-46.90186 -81.56255)"/><path class="cls-2" d="M371.82755,261.36472h-55.606a3.08321,3.08321,0,1,1,0-6.16642h55.606a3.08321,3.08321,0,1,1,0,6.16642Z" transform="translate(-46.90186 -81.56255)"/><path class="cls-4" d="M270.24877,279.51143h0a3.083,3.083,0,1,1,3.08281-3.08286,3.08315,3.08315,0,0,1-3.08281,3.08286Z" transform="translate(-46.90186 -81.56255)"/><path class="cls-2" d="M335.04823,279.51143H304.14577a3.083,3.083,0,1,1,0-6.166h30.90246a3.083,3.083,0,0,1,0,6.166Z" transform="translate(-46.90186 -81.56255)"/><path class="cls-8" d="M425.78247,279.51143H350.37263a3.083,3.083,0,1,1,0-6.166h75.40984a3.083,3.083,0,0,1,0,6.166Z" transform="translate(-46.90186 -81.56255)"/><path class="cls-4" d="M270.24877,297.65852h0a3.083,3.083,0,1,1,3.08281-3.08328,3.08324,3.08324,0,0,1-3.08281,3.08328Z" transform="translate(-46.90186 -81.56255)"/><path class="cls-5" d="M575.83664,297.65852H304.14577a3.083,3.083,0,1,1,0-6.16609H575.83664a3.083,3.083,0,0,1,0,6.16609Z" transform="translate(-46.90186 -81.56255)"/><path class="cls-9" d="M624.59279,297.65852h-31.3479a3.083,3.083,0,0,1,0-6.16609h31.3479a3.083,3.083,0,0,1,0,6.16609Z" transform="translate(-46.90186 -81.56255)"/><path class="cls-9" d="M624.59279,297.14543h-31.3479a3.083,3.083,0,0,1,0-6.166h31.3479a3.083,3.083,0,0,1,0,6.166Z" transform="translate(-46.90186 -81.56255)"/><path class="cls-4" d="M270.24877,315.80557h0a3.083,3.083,0,1,1,3.08281-3.08319,3.08319,3.08319,0,0,1-3.08281,3.08319Z" transform="translate(-46.90186 -81.56255)"/><path class="cls-4" d="M270.24877,333.95266h0a3.08321,3.08321,0,1,1,3.08281-3.08324,3.08347,3.08347,0,0,1-3.08281,3.08324Z" transform="translate(-46.90186 -81.56255)"/><path class="cls-8" d="M550.42905,333.95266H325.43338a3.08321,3.08321,0,1,1,0-6.16642H550.42905a3.08321,3.08321,0,0,1,0,6.16642Z" transform="translate(-46.90186 -81.56255)"/><path class="cls-5" d="M624.59279,333.95266H566.46207a3.08321,3.08321,0,0,1,0-6.16642h58.13072a3.08321,3.08321,0,0,1,0,6.16642Z" transform="translate(-46.90186 -81.56255)"/><path class="cls-4" d="M270.24877,352.09933h0a3.083,3.083,0,1,1,3.08281-3.08282,3.08311,3.08311,0,0,1-3.08281,3.08282Z" transform="translate(-46.90186 -81.56255)"/><path class="cls-6" d="M319.26694,352.09933H304.14577a3.083,3.083,0,1,1,0-6.166h15.12117a3.083,3.083,0,1,1,0,6.166Z" transform="translate(-46.90186 -81.56255)"/><path class="cls-4" d="M270.24877,370.00728h0a3.083,3.083,0,1,1,3.08281-3.08281,3.0831,3.0831,0,0,1-3.08281,3.08281Z" transform="translate(-46.90186 -81.56255)"/><path class="cls-2" d="M335.04823,370.00728H304.14577a3.083,3.083,0,1,1,0-6.166h30.90246a3.083,3.083,0,0,1,0,6.166Z" transform="translate(-46.90186 -81.56255)"/><path class="cls-8" d="M425.78247,370.00728H350.37263a3.083,3.083,0,1,1,0-6.166h75.40984a3.083,3.083,0,0,1,0,6.166Z" transform="translate(-46.90186 -81.56255)"/><path class="cls-4" d="M270.24877,388.15437h0a3.08282,3.08282,0,1,1,3.08281-3.08281,3.0824,3.0824,0,0,1-3.08281,3.08281Z" transform="translate(-46.90186 -81.56255)"/><path class="cls-5" d="M575.83664,388.15437H304.14577a3.08282,3.08282,0,1,1,0-6.16564H575.83664a3.08282,3.08282,0,1,1,0,6.16564Z" transform="translate(-46.90186 -81.56255)"/><path class="cls-9" d="M624.59279,388.15437h-31.3479a3.08282,3.08282,0,0,1,0-6.16564h31.3479a3.08282,3.08282,0,0,1,0,6.16564Z" transform="translate(-46.90186 -81.56255)"/><path class="cls-9" d="M624.59279,387.64247h-31.3479a3.0836,3.0836,0,0,1,0-6.16719h31.3479a3.0836,3.0836,0,0,1,0,6.16719Z" transform="translate(-46.90186 -81.56255)"/><path class="cls-4" d="M270.24877,406.29993h0a3.08284,3.08284,0,1,1,3.08281-3.08284,3.0824,3.0824,0,0,1-3.08281,3.08284Z" transform="translate(-46.90186 -81.56255)"/><path class="cls-6" d="M702.1908,406.29993H325.43338a3.08284,3.08284,0,1,1,0-6.16568H702.1908a3.08284,3.08284,0,0,1,0,6.16568Z" transform="translate(-46.90186 -81.56255)"/><path class="cls-4" d="M270.24877,424.4493h0a3.08283,3.08283,0,1,1,3.08281-3.08286,3.08485,3.08485,0,0,1-3.08281,3.08286Z" transform="translate(-46.90186 -81.56255)"/><path class="cls-8" d="M388.25748,424.4493h-62.8241a3.08283,3.08283,0,1,1,0-6.16565h62.8241a3.08283,3.08283,0,1,1,0,6.16565Z" transform="translate(-46.90186 -81.56255)"/><path class="cls-2" d="M550.42905,424.4493H406.52148a3.08283,3.08283,0,1,1,0-6.16565H550.42905a3.08283,3.08283,0,1,1,0,6.16565Z" transform="translate(-46.90186 -81.56255)"/><path class="cls-5" d="M624.59279,424.4493H566.46207a3.08283,3.08283,0,0,1,0-6.16565h58.13072a3.08283,3.08283,0,0,1,0,6.16565Z" transform="translate(-46.90186 -81.56255)"/><path class="cls-4" d="M270.24877,442.59485h0a3.08284,3.08284,0,1,1,3.08281-3.08284,3.08239,3.08239,0,0,1-3.08281,3.08284Z" transform="translate(-46.90186 -81.56255)"/><path class="cls-9" d="M319.26694,442.59485H304.14577a3.08284,3.08284,0,1,1,0-6.16567h15.12117a3.08284,3.08284,0,1,1,0,6.16567Z" transform="translate(-46.90186 -81.56255)"/><path class="cls-4" d="M270.24877,460.50356h0a3.08284,3.08284,0,1,1,3.08281-3.08286,3.08239,3.08239,0,0,1-3.08281,3.08286Z" transform="translate(-46.90186 -81.56255)"/><path class="cls-2" d="M335.04823,460.50356H304.14577a3.08284,3.08284,0,1,1,0-6.16568h30.90246a3.08284,3.08284,0,1,1,0,6.16568Z" transform="translate(-46.90186 -81.56255)"/><path class="cls-8" d="M425.78247,460.50356H350.37263a3.08284,3.08284,0,1,1,0-6.16568h75.40984a3.08284,3.08284,0,0,1,0,6.16568Z" transform="translate(-46.90186 -81.56255)"/><path class="cls-4" d="M270.24877,478.64911h0a3.08284,3.08284,0,1,1,3.08281-3.08284,3.0824,3.0824,0,0,1-3.08281,3.08284Z" transform="translate(-46.90186 -81.56255)"/><path class="cls-5" d="M575.83664,478.64911H304.14577a3.08284,3.08284,0,1,1,0-6.16567H575.83664a3.08284,3.08284,0,0,1,0,6.16567Z" transform="translate(-46.90186 -81.56255)"/><path class="cls-9" d="M624.59279,478.64911h-31.3479a3.08284,3.08284,0,0,1,0-6.16567h31.3479a3.08284,3.08284,0,0,1,0,6.16567Z" transform="translate(-46.90186 -81.56255)"/><path class="cls-5" d="M624.59279,478.13718h-31.3479a3.08283,3.08283,0,0,1,0-6.16565h31.3479a3.08283,3.08283,0,0,1,0,6.16565Z" transform="translate(-46.90186 -81.56255)"/><path class="cls-4" d="M270.24877,496.79848h0a3.08284,3.08284,0,1,1,3.08281-3.08286,3.08485,3.08485,0,0,1-3.08281,3.08286Z" transform="translate(-46.90186 -81.56255)"/><path class="cls-8" d="M702.1908,496.79848H325.43338a3.08284,3.08284,0,1,1,0-6.16567H702.1908a3.08284,3.08284,0,0,1,0,6.16567Z" transform="translate(-46.90186 -81.56255)"/><path class="cls-4" d="M270.24877,514.944h0a3.08284,3.08284,0,1,1,3.08281-3.08286,3.08243,3.08243,0,0,1-3.08281,3.08286Z" transform="translate(-46.90186 -81.56255)"/><path class="cls-2" d="M550.42905,514.944H325.43338a3.08284,3.08284,0,1,1,0-6.16567H550.42905a3.08284,3.08284,0,1,1,0,6.16567Z" transform="translate(-46.90186 -81.56255)"/><path class="cls-6" d="M624.59279,514.944H566.46207a3.08284,3.08284,0,0,1,0-6.16567h58.13072a3.08284,3.08284,0,0,1,0,6.16567Z" transform="translate(-46.90186 -81.56255)"/><path class="cls-2" d="M702.1908,514.944H644.06a3.08284,3.08284,0,0,1,0-6.16567H702.1908a3.08284,3.08284,0,0,1,0,6.16567Z" transform="translate(-46.90186 -81.56255)"/><path class="cls-4" d="M270.24877,533.08961h0a3.08284,3.08284,0,1,1,3.08281-3.08289,3.08245,3.08245,0,0,1-3.08281,3.08289Z" transform="translate(-46.90186 -81.56255)"/><path class="cls-9" d="M319.26694,533.08961H304.14577a3.08284,3.08284,0,1,1,0-6.16568h15.12117a3.08284,3.08284,0,1,1,0,6.16568Z" transform="translate(-46.90186 -81.56255)"/><path class="cls-7" d="M251.971,503.65557c-6.90715-7.85418-7.01107-19.86842-3.3831-29.67848,3.62757-9.81,10.35936-18.09209,16.31113-26.69115s11.36216-18.18376,11.69719-28.63557c.62152-19.39476-15.7809-34.72484-22.52534-52.91782a57.96,57.96,0,0,1-3.27037-14.22191c-4.1284-41.21748,18.30941-87.21551,58.1372-101.23951,5.04867-2.24357,11.77969,1.12193,11.77969,6.17057.56117,11.219-10.09694,20.19429-10.09694,31.9744a8.10993,8.10993,0,0,0,1.122,3.92672c20.1943,11.21893,24.121,31.41318,3.36552,44.876-1.68275,1.6831-2.24355,3.92667-3.41709,5.99911a21.26854,21.26854,0,0,0-.9516,11.19561,39.69449,39.69449,0,0,0,3.6742,10.99925c3.37771,6.89146,7.97678,13.21379,10.47435,20.47238,6.82389,19.82642-3.4167,41.37188-15.58833,58.44776-12.17207,17.07594-27.02007,33.51009-30.9926,54.10048-1.2725,6.59352-1.40773,13.56141-4.37863,19.58574-2.97132,6.02051-10.17066,10.78035-16.33939,8.12539q-.6126-2.7161-1.22592-5.43219" transform="translate(-46.90186 -81.56255)"/><path class="cls-10" d="M269.199,442.2625l-.55161-.66469c28.061-23.26832,19.71485-58.1269,11.64254-91.83444-.696-2.90714-1.39165-5.81154-2.064-8.70722-4.47451-19.25834,1.59566-35.93772,7.4752-46.53854A81.89044,81.89044,0,0,1,299.66938,275.945l.5864.63415c-.29721.27541-29.63265,27.93688-21.18866,64.28185.672,2.89334,1.36721,5.79588,2.06283,8.70107,8.13341,33.9662,16.5438,69.08835-11.931,92.70048Z" transform="translate(-46.90186 -81.56255)"/><path class="cls-11" d="M194.32433,386.20228c-10.35175-11.7228-17.2188-27.57168-14.46448-42.96561,2.75391-15.39392,17.26539-28.96409,32.79643-27.13769-8.62886-13.47813-17.52858-27.76654-18.34531-43.74952-.81676-15.9826,9.75961-33.74577,25.72808-34.81043,6.77842-.45192,13.32494,2.663,17.96831,7.57681,4.73807,5.15529,7.54281,11.88671,6.98162,18.61849-3.36552-4.48784,1.122-10.09733,5.60984-11.2193a9.7341,9.7341,0,0,1,7.853,1.68314c4.48789,3.92635,7.29264,9.53616,6.17066,15.14565-3.36552,13.46284-12.90205,25.80374-6.17066,39.82737,10.65813,21.31622,20.19467,42.07169,25.01225,65.212.94276,3.75593,1.82257,7.5348,2.595,11.33771q1.16094,5.69576,1.99526,11.46039c1.48258,10.24936,2.11442,21.07935-1.94408,30.60675-4.83323,11.34955-15.79349,19.559-19.20907,31.4128-5.41844,18.795,9.86011,40.37861.71781,57.67228-6.62218,12.52618-24.40635,14.79913-36.02334,8.35842-16.5621-9.17975-16.972-30.92764-12.75-47.20133,3.98895-15.37594,12.784-28.6165,10.34446-45.39064a39.75046,39.75046,0,0,0-5.76263-15.44091c-7.35027-11.83473-19.79085-20.45291-29.10316-30.99642Z" transform="translate(-46.90186 -81.56255)"/><polygon class="cls-5" points="143.436 419.278 259.117 419.278 228.024 481.213 170.823 481.213 143.436 419.278 143.436 419.278"/><path class="cls-10" d="M247.788,497.658c-.11807-.24832-2.89759-6.24593-3.45874-17.93165-.51648-10.74979.86144-28.5286,10.356-52.16748,12.96356-32.2762-4.09593-64.54163-16.55218-88.10142-5.07734-9.60341-9.46206-17.89687-10.7693-24.21535-4.46609-21.58557,8.13493-47.51269,8.26291-47.77206l.77473.38164c-.12647.25708-12.59683,25.92367-8.1919,47.21545,1.28246,6.19813,5.64043,14.44155,10.68719,23.98648,12.53494,23.7092,29.70215,56.17946,16.59039,88.82614-9.42308,23.46314-10.80141,41.08532-10.29792,51.73963.54438,11.5368,3.35141,17.61079,3.37969,17.668l-.78083.37059Z" transform="translate(-46.90186 -81.56255)"/><path class="cls-10" d="M255.5153,427.769l-.858-.09933c1.69387-14.505-1.47951-36.26051-26.21744-57.54124A129.27276,129.27276,0,0,0,197.704,350.70651l.33083-.7976a130.22453,130.22453,0,0,1,30.96812,19.56472c13.81318,11.88248,29.625,31.64237,26.51236,58.29533Z" transform="translate(-46.90186 -81.56255)"/><path class="cls-10" d="M233.806,331.154c-5.41538-18.02939-.429-32.08856,4.70756-40.7083a53.60994,53.60994,0,0,1,12.57772-14.53206l.51077.69678a52.69152,52.69152,0,0,0-12.3642,14.30711c-5.0372,8.465-9.92543,22.27432-4.60478,39.98741l-.82707.24906Z" transform="translate(-46.90186 -81.56255)"/><path class="cls-10" d="M252.45466,435.95169l-.86183-.05734c.9325-13.65689-1.20752-32.3984-16.69622-44.13381a43.6722,43.6722,0,0,0-19.12655-8.22087l.099-.85568a44.61892,44.61892,0,0,1,19.54867,8.38894c15.79659,11.96845,17.9836,31.01169,17.037,44.87876Z" transform="translate(-46.90186 -81.56255)"/><path class="cls-10" d="M282.09647,353.70455l-.86067-.07564c1.08185-12.35116,4.82784-28.92628,16.52811-37.74962,7.03893-5.30843,13.52245-5.26982,13.79789-5.26982l-.01227.86335a23.99606,23.99606,0,0,0-13.31347,5.13193c-11.41068,8.64222-15.0753,24.945-16.13959,37.0998Z" transform="translate(-46.90186 -81.56255)"/><path class="cls-10" d="M192.62551,344.21731a1.85582,1.85582,0,1,0,1.85621,1.85582,1.85775,1.85775,0,0,0-1.85621-1.85582Zm0,4.57532a2.71953,2.71953,0,1,1,2.71955-2.7195,2.72254,2.72254,0,0,1-2.71955,2.7195Z" transform="translate(-46.90186 -81.56255)"/><path class="cls-10" d="M316.32353,307.92009a1.34469,1.34469,0,1,0,1.34432,1.34469,1.34618,1.34618,0,0,0-1.34432-1.34469Zm0,3.55273a2.20823,2.20823,0,1,1,2.20807-2.208,2.21009,2.21009,0,0,1-2.20807,2.208Z" transform="translate(-46.90186 -81.56255)"/><path class="cls-10" d="M209.50893,381.405a1.67283,1.67283,0,1,0,1.67167,1.67244,1.67491,1.67491,0,0,0-1.67167-1.67244Zm0,4.20518a2.53428,2.53428,0,1,1,2.53539-2.53274,2.53582,2.53582,0,0,1-2.53539,2.53274Z" transform="translate(-46.90186 -81.56255)"/><path class="cls-10" d="M237.33273,262.20284a1.2788,1.2788,0,1,0,1.279,1.27861,1.27989,1.27989,0,0,0-1.279-1.27861Zm0,3.42131a2.14252,2.14252,0,1,1,2.1427-2.1427,2.14506,2.14506,0,0,1-2.1427,2.1427Z" transform="translate(-46.90186 -81.56255)"/><path class="cls-10" d="M255.00267,272.5802a1.279,1.279,0,1,0,1.279,1.279,1.28048,1.28048,0,0,0-1.279-1.279Zm0,3.42131a2.14233,2.14233,0,1,1,2.14234-2.14233,2.14441,2.14441,0,0,1-2.14234,2.14233Z" transform="translate(-46.90186 -81.56255)"/><path class="cls-10" d="M303.52463,268.7093a2.28881,2.28881,0,1,0,2.28862,2.289,2.29159,2.29159,0,0,0-2.28862-2.289Zm0,5.44133a3.15255,3.15255,0,1,1,3.15236-3.15234,3.15609,3.15609,0,0,1-3.15236,3.15234Z" transform="translate(-46.90186 -81.56255)"/><path class="cls-5" d="M500.23267,383.69631A25.13825,25.13825,0,1,1,475.09638,358.558a25.13648,25.13648,0,0,1,25.13629,25.13827Z" transform="translate(-46.90186 -81.56255)"/><path class="cls-12" d="M462.0392,400.48192a1.47454,1.47454,0,0,0,1.02382-2.53659c-5.48951-5.27942-5.55064-12.94635-5.55064-13.02661a1.47456,1.47456,0,0,0-2.94912,0c0,.36677.07256,9.01169,6.456,15.15057a1.46857,1.46857,0,0,0,1.02.41263Z" transform="translate(-46.90186 -81.56255)"/><polygon class="cls-10" points="533.553 451.458 554.163 345.515 474.999 260.53 479.151 254.705 562.479 342.933 541.637 450.324 533.553 451.458 533.553 451.458"/><polygon class="cls-10" points="484.129 259.98 493.385 269.777 483.613 269.777 480.431 266.36 484.129 259.98 484.129 259.98"/><polygon class="cls-10" points="558.365 364.127 552.043 356.414 552.436 354.385 560.378 353.759 558.365 364.127 558.365 364.127"/><path class="cls-12" d="M557.63,546.34537a1.032,1.032,0,0,1-1.03141,1.03141H542.93394a1.03775,1.03775,0,0,1-1.03524-1.03141V536.02728a1.03529,1.03529,0,0,1,1.03524-1.03146h13.66461a1.02955,1.02955,0,0,1,1.03141,1.03146v10.31809Z" transform="translate(-46.90186 -81.56255)"/><path class="cls-10" d="M584.49691,536.58878c-33.66673,0-60.96149,7.858-60.96149,21.93514H645.45826c0-14.07714-27.29089-21.93514-60.96135-21.93514Z" transform="translate(-46.90186 -81.56255)"/><path class="cls-10" d="M584.49691,545.36364c-6.1237,0-4.90133-4.64147-2.61691-8.75957.86718-.00765,1.73817-.01529,2.61691-.01529a188.3719,188.3719,0,0,1,21.13664,1.13081c-3.39609,2.2538-12.44214,7.644-21.13664,7.644Z" transform="translate(-46.90186 -81.56255)"/><path class="cls-7" d="M532.93672,349.07611a12.91227,12.91227,0,1,1,.33618-18.25481,12.9121,12.9121,0,0,1-.33618,18.25481Z" transform="translate(-46.90186 -81.56255)"/><path class="cls-10" d="M528.30287,344.27308a6.23509,6.23509,0,1,1,.16434-8.81835,6.23395,6.23395,0,0,1-.16434,8.81835Z" transform="translate(-46.90186 -81.56255)"/><path class="cls-7" d="M618.02981,425.74433a12.912,12.912,0,1,1-12.912-12.912,12.9155,12.9155,0,0,1,12.912,12.912Z" transform="translate(-46.90186 -81.56255)"/><path class="cls-10" d="M611.35225,425.74433a6.23635,6.23635,0,1,1-6.23441-6.23828,6.23359,6.23359,0,0,1,6.23441,6.23828Z" transform="translate(-46.90186 -81.56255)"/><path class="cls-7" d="M597.405,532.45163a12.9101,12.9101,0,1,1-12.90809-12.912,12.90982,12.90982,0,0,1,12.90809,12.912Z" transform="translate(-46.90186 -81.56255)"/><path class="cls-10" d="M590.73127,532.45163a6.23632,6.23632,0,1,1-6.23436-6.23448,6.23684,6.23684,0,0,1,6.23436,6.23448Z" transform="translate(-46.90186 -81.56255)"/><polygon class="cls-10" points="472.13 276.461 458.408 262.229 464.226 256.624 477.944 270.856 472.13 276.461 472.13 276.461"/><path class="cls-7" d="M443.4658,366.322c25.12109-24.21306,48.44674-39.91448,71.13819-17.22414,20.85787,20.85936,5.2909,46.2421-19.83019,70.454L443.4658,366.322Z" transform="translate(-46.90186 -81.56255)"/><path class="cls-12" d="M523.9442,335.29315a4.29362,4.29362,0,1,0,4.29,4.29226,4.28891,4.28891,0,0,0-4.29-4.29226Z" transform="translate(-46.90186 -81.56255)"/><path class="cls-12" d="M605.11784,421.36644a4.29382,4.29382,0,1,0,4.29376,4.29381,4.29266,4.29266,0,0,0-4.29376-4.29381Z" transform="translate(-46.90186 -81.56255)"/><path class="cls-12" d="M584.49691,528.1578a4.29573,4.29573,0,1,0,4.28994,4.29383,4.29267,4.29267,0,0,0-4.28994-4.29383Z" transform="translate(-46.90186 -81.56255)"/><path class="cls-13" d="M426.28671,680.64159a9.559,9.559,0,0,1-3.42659-.638c-7.60586-2.89185-8.01464-13.19089-10.83007-20.8311a27.01843,27.01843,0,0,0-24.68939-17.21724h-.01147a26.99141,26.99141,0,0,0-19.899,9.24083c-4.42447,5.03109-4.38665,15.28812-10.29253,18.22581a11.14662,11.14662,0,0,1-4.88058,1.36374c-11.92453,0-6.41593-31.70314-8.32408-37.61667-3.54235-10.98281-15.994-16.59459-27.48991-17.61071-2.069-.1834-4.13717-.26363-6.20577-.26363-9.83261,0-19.66787,1.76869-29.515,2.45251-2.21415.15279-4.45655.24451-6.70355.24451-9.8475,0-19.77062-1.7305-27.67521-7.39956-9.70767-6.96409-14.74144-21.45-8.07419-31.36317,4.30451-6.40254,12.33438-9.46244,20.04222-9.75656.50083-.01912,1.00013-.02678,1.50016-.02678,7.191,0,14.27121,1.91008,21.26661,3.66731a524.88523,524.88523,0,0,0,127.525,15.68162,523.93,523.93,0,0,0,108.29264-11.277c4.79044-1.01236,9.69163-2.09724,14.55086-2.09724a27.40056,27.40056,0,0,1,5.34433.50044c6.57441,1.30644,12.93874,6.29938,13.50028,12.98074.54247,6.4522-4.50775,12.29693-10.43654,14.90995-5.925,2.6091-12.59878,2.73517-19.06625,3.04459A284.55811,284.55811,0,0,0,453.295,618.30107c6.521.83663,10.46713,8.32024,9.8368,14.8641-.6265,6.54767-4.51153,12.26252-8.27056,17.65655q-6.19428,8.8818-12.38478,17.76734c-3.97676,5.7035-9.82916,12.05628-16.1897,12.05253" transform="translate(-46.90186 -81.56255)"/><polygon class="cls-10" points="262.33 453.819 446.061 445.801 434.7 487.325 327.723 532.189 259.596 501.823 262.33 453.819 262.33 453.819"/><polygon class="cls-14" points="281.931 436.239 283.525 468.897 423.916 468.897 427.453 400.529 281.931 436.239 281.931 436.239"/><path class="cls-14" d="M373.97942,390.98889s-59.95138,12.15179-70.97854,21.20165c-11.02711,9.05368-21.94886,120.11973-18.22154,125.24634,3.72727,5.12274,228.09417,10.36015,233.26276.75637,5.17245-9.6076-23.63888-124.63128-31.39752-130.39587-7.75867-5.76072-93.66162-18.10351-112.66516-16.80849Z" transform="translate(-46.90186 -81.56255)"/><path class="cls-15" d="M470.83312,508.4995l-.05731-.0038a.66261.66261,0,0,1-.60356-.71438c1.83362-21.15963.01907-80.74577,0-81.34558a.65927.65927,0,1,1,1.31787-.042c.01912.59973,1.83755,60.26615,0,81.50218a.66305.66305,0,0,1-.657.60359Z" transform="translate(-46.90186 -81.56255)"/><path class="cls-15" d="M322.71232,506.3335l-.076-.00385a.66281.66281,0,0,1-.581-.73348c2.86352-25.04845-2.29858-76.50162-2.3509-77.01733a.66026.66026,0,0,1,1.31373-.13371c.05234.51955,5.22857,52.114,2.349,77.3a.65992.65992,0,0,1-.65474.58834Z" transform="translate(-46.90186 -81.56255)"/><path class="cls-16" d="M343.53386,532.81832,340.7024,521.3771a1.52907,1.52907,0,0,1,1.02952-1.826l3.87549-1.20332a1.52649,1.52649,0,0,0,1.0486-1.18043l.65824-3.55273a1.52874,1.52874,0,0,1,1.5013-1.24913h3.16992a1.53106,1.53106,0,0,0,1.29465-.71436l1.933-3.09434a1.52579,1.52579,0,0,1,2.07318-.50421l3.66961,2.1736a1.51943,1.51943,0,0,0,1.52385.01912l2.15413-1.20332a1.52853,1.52853,0,0,1,2.01857.489l7.71893,11.66662a1.525,1.525,0,0,1-.47715,2.14308l-1.70988,1.04671a1.52378,1.52378,0,0,1-1.93984-.29416,1.52729,1.52729,0,0,0-2.6523,1.24919l.079.50806a1.53068,1.53068,0,0,1-.83276,1.60447l-15.13723,7.4683a1.494,1.494,0,0,1-.30978.11462c-.94969.23305-5.59956,1.211-7.646-1.73434a1.45013,1.45013,0,0,1-.21162-.48517Z" transform="translate(-46.90186 -81.56255)"/><path class="cls-16" d="M450.1892,532.81832l2.83454-11.44122a1.534,1.534,0,0,0-1.03141-1.826l-3.87361-1.20332a1.52749,1.52749,0,0,1-1.05053-1.18043l-.65709-3.55273a1.52758,1.52758,0,0,0-1.50133-1.24913H441.7391a1.53068,1.53068,0,0,1-1.295-.71436l-1.933-3.09434a1.527,1.527,0,0,0-2.07434-.50421l-3.6673,2.1736a1.52022,1.52022,0,0,1-1.52423.01912L429.0907,509.042a1.52682,1.52682,0,0,0-2.017.489l-7.72044,11.66662a1.52508,1.52508,0,0,0,.47752,2.14308l1.7114,1.04671a1.51971,1.51971,0,0,0,1.93683-.29416,1.529,1.529,0,0,1,2.655,1.24919l-.08021.50806a1.528,1.528,0,0,0,.83276,1.60447l15.1353,7.4683a1.53963,1.53963,0,0,0,.31327.11462c.94738.23305,5.59644,1.211,7.64406-1.73434a1.40872,1.40872,0,0,0,.21008-.48517Z" transform="translate(-46.90186 -81.56255)"/><path class="cls-15" d="M340.65847,517.46915l-.097-.00765-35.89228-5.287a.66029.66029,0,1,1,.19215-1.30652l35.89228,5.287a.66065.66065,0,0,1-.09511,1.31417Z" transform="translate(-46.90186 -81.56255)"/><path class="cls-15" d="M456.22882,519.37153a.66024.66024,0,0,1-.11462-1.31029l29.17805-5.20685a.66169.66169,0,0,1,.233,1.30268l-29.18187,5.203a.58246.58246,0,0,1-.11458.01147Z" transform="translate(-46.90186 -81.56255)"/><path class="cls-16" d="M364.399,365.28372s-5.03647,43.30447,25.803,43.30447c28.05493,0,27.077-37.25683,27.077-37.25683s2.804-23.05784-18.94394-25.66738c-21.74906-2.60992-35.2482,11.83662-33.936,19.61974Z" transform="translate(-46.90186 -81.56255)"/><path class="cls-10" d="M409.81441,351.07519s-6.85331,13.42347.09168,20.242a17.68249,17.68249,0,0,1,4.97,16.6729l-.07261.32475s11.64371-9.22482,13.80208-27.92849c2.15451-18.7037-6.33-30.47424-13.51557-29.146,0,0-2.86126-14.369-21.11384-13.02509-18.25094,1.34319-33.31479-.13831-39.924,14.3308-6.60957,14.46906,4.91115,27.14,4.91115,27.14s.89925,15.31331,7.12909,28.63632l-2.4315-17.88157s20.05447-26.94212,46.1535-19.36568Z" transform="translate(-46.90186 -81.56255)"/><path class="cls-16" d="M416.92747,373.65244l-2.124,14.6624s10.364-5.50483,10.19974-12.96818c-.05731-2.488-.92066-3.86248-2.04758-4.58948a4,4,0,0,0-6.02815,2.89526Z" transform="translate(-46.90186 -81.56255)"/><path class="cls-16" d="M364.45928,369.43618l1.79548,18.87866s-9.9617-5.77222-9.79595-13.239c.16618-7.46487,8.00047-5.63964,8.00047-5.63964Z" transform="translate(-46.90186 -81.56255)"/><path class="cls-12" d="M446.052,470.61539H342.19568a8.26739,8.26739,0,0,0-8.26753,8.26676v68.54047a8.26737,8.26737,0,0,0,8.26753,8.26674H446.052a8.2674,8.2674,0,0,0,8.26669-8.26674V478.88215a8.26742,8.26742,0,0,0-8.26669-8.26676Z" transform="translate(-46.90186 -81.56255)"/><path class="cls-17" d="M452.317,559.69283H335.93028a2.00174,2.00174,0,1,1,0-4.00347H452.317a2.00174,2.00174,0,0,1,0,4.00347Z" transform="translate(-46.90186 -81.56255)"/><path class="cls-2" d="M434.99659,557.5421a.85188.85188,0,1,1-.85188-.85187.85269.85269,0,0,1,.85188.85187Z" transform="translate(-46.90186 -81.56255)"/><polygon class="cls-2" points="377.44 476.831 384.328 476.831 384.328 475.128 377.44 475.128 377.44 476.831 377.44 476.831"/><path class="cls-7" d="M270.57958,507.5559l159.4738,96.82469c-12.8394,10.42506-19.983,24.04381-22.85574,40.06157L241.07912,560.78543a30.45261,30.45261,0,1,1,29.50046-53.22953Z" transform="translate(-46.90186 -81.56255)"/><path class="cls-10" d="M383.93693,619.08041l-10.126,8.54942,20.03153,10.08887c5.99378-5.16093,17.6795-15.11235,19.42145-15.77705,2.35321-.89772-29.327-2.86124-29.327-2.86124Z" transform="translate(-46.90186 -81.56255)"/><path class="cls-10" d="M430.05338,604.38059l26.56128,14.96721a4.09254,4.09254,0,0,1,1.53947,5.6079c-7.00613,12.21675-30.3737,51.70911-42.72416,57.07635,0,0-9.9705-3.20124-6.15038-16.23927,3.81629-13.03426-1.32175-25.09435-1.32175-25.09435s.86718-30.389,22.09554-36.31784Z" transform="translate(-46.90186 -81.56255)"/><path class="cls-18" d="M415.43,682.03205c12.35046-5.36724,35.718-44.8596,42.72416-57.07635a4.09314,4.09314,0,0,0-.466-4.72926c-4.74456,2.80778-25.2968,17.07973-42.25812,61.80561Z" transform="translate(-46.90186 -81.56255)"/><path class="cls-7" d="M513.76358,518.48907l-168.49425,80.104c11.71209,11.67425,17.43578,25.95,18.66548,42.17794l173.76181-66.32869A30.45373,30.45373,0,0,0,553.233,530.80512h0a30.45535,30.45535,0,0,0-39.46942-12.31605Z" transform="translate(-46.90186 -81.56255)"/><path class="cls-10" d="M345.26933,598.5931l-27.94451,12.19a4.09509,4.09509,0,0,0-2.10374,5.42069c5.72789,12.86622,24.96062,54.52836,36.69908,61.12571,0,0,10.24442-2.16985,7.77127-15.52878-2.47277-13.35511,3.86442-24.83076,3.86442-24.83076s2.22828-30.32023-18.28652-38.37687Z" transform="translate(-46.90186 -81.56255)"/><path class="cls-18" d="M351.92016,677.32951C340.1817,670.73216,320.949,629.07,315.22108,616.2038a4.09338,4.09338,0,0,1,.94738-4.65665c4.43477,3.27382,23.42955,19.56278,35.7517,65.78236Z" transform="translate(-46.90186 -81.56255)"/><path class="cls-14" d="M285.0624,508.85092c-1.19113,15.49059-1.42527,27.01205-.28306,28.586,1.04785,1.44014,19.53568,2.888,45.68932,4.0149L285.0624,508.85092Z" transform="translate(-46.90186 -81.56255)"/><path class="cls-14" d="M453.32554,543.43827c35.49267-.40878,62.94784-1.95973,64.71656-5.245,1.2683-2.3532.49663-11.02865-1.50511-22.871l-63.21145,28.116Z" transform="translate(-46.90186 -81.56255)"/><path class="cls-15" d="M351.72417,596.18643a.66054.66054,0,0,1-.28381-1.25678l30.22285-14.36752a.65975.65975,0,1,1,.56614,1.19187l-30.2221,14.36752a.682.682,0,0,1-.28308.06491Z" transform="translate(-46.90186 -81.56255)"/><path class="cls-14" d="M272.71347,186.70705a7.69207,7.69207,0,0,1-7.69215,7.69218h-70.883a7.692,7.692,0,0,1-7.69182-7.69181V147.8a7.692,7.692,0,0,1,7.69182-7.69185h70.88262a7.69256,7.69256,0,0,1,7.69255,7.693v38.906Z" transform="translate(-46.90186 -81.56255)"/><polygon class="cls-12" points="171.272 100.904 176.892 100.904 193.063 70.478 187.443 70.478 171.272 100.904 171.272 100.904"/><polygon class="cls-12" points="211.181 86.594 211.14 86.594 202.44 74.286 196.474 74.286 205.193 86.628 196.474 98.386 202.44 98.386 211.14 86.663 211.181 86.663 211.16 86.628 211.181 86.594 211.181 86.594"/><polygon class="cls-12" points="154.175 86.594 154.216 86.594 162.915 74.286 168.367 74.286 159.647 86.628 168.367 98.386 162.915 98.386 154.216 86.663 154.175 86.663 154.196 86.628 154.175 86.594 154.175 86.594"/><path class="cls-7" d="M593.48556,260.31684a9.20226,9.20226,0,0,1-9.20269,9.19962H499.51071a9.19866,9.19866,0,0,1-9.19882-9.19924V213.78557a9.1989,9.1989,0,0,1,9.19882-9.19924h84.77216a9.20268,9.20268,0,0,1,9.20269,9.20036v46.53015Z" transform="translate(-46.90186 -81.56255)"/><path class="cls-12" d="M518.41264,235.48879a6.31883,6.31883,0,0,1-1.86035,1.47l-.99327.64749a6.4869,6.4869,0,0,0,.99327.64754,13.27549,13.27549,0,0,1,1.40577.99434,2.65277,2.65277,0,0,1,.71432,1.03565,4.92894,4.92894,0,0,1,.25983,1.77329v7.90422a2.838,2.838,0,0,0,.97028,2.42082,5.52961,5.52961,0,0,0,3.26239.73534v3.2811h-1.51275q-3.45531,0-4.94708-1.20755-1.48983-1.21193-1.4898-4.06307V241.7973a3.05423,3.05423,0,0,0-.47752-1.92186,1.77114,1.77114,0,0,0-1.467-.58332h-1.253V235.964h1.253a1.77124,1.77124,0,0,0,1.467-.58328,3.05436,3.05436,0,0,0,.47752-1.9219v-9.33066a4.95663,4.95663,0,0,1,1.4898-4.03975q1.4899-1.23375,4.94708-1.2309h1.51275v3.28114a5.52911,5.52911,0,0,0-3.26239.73539,2.83734,2.83734,0,0,0-.97028,2.42077v7.94815a3.80535,3.80535,0,0,1-.51957,2.24585Z" transform="translate(-46.90186 -81.56255)"/><path class="cls-12" d="M571.77586,235.964v3.32814h-1.253a1.776,1.776,0,0,0-1.46691.58332,3.05642,3.05642,0,0,0-.47369,1.92186V251.128q0,2.85306-1.49368,4.06307-1.48983,1.20738-4.94321,1.20755h-1.5128v-3.2811a5.5157,5.5157,0,0,0,3.25857-.73534,2.8398,2.8398,0,0,0,.97415-2.42082v-7.90422a4.848,4.848,0,0,1,.25974-1.77329,2.60811,2.60811,0,0,1,.71049-1.03565,13.69474,13.69474,0,0,1,1.40587-.99434,6.48779,6.48779,0,0,0,.99322-.64754l-.99322-.64749a6.31964,6.31964,0,0,1-1.86039-1.47,3.80838,3.80838,0,0,1-.51571-2.24585v-7.94815a2.83917,2.83917,0,0,0-.97415-2.42077,5.5152,5.5152,0,0,0-3.25857-.73539v-3.28114h1.5128q3.44958,0,4.94321,1.2309a4.95792,4.95792,0,0,1,1.49368,4.03975v9.33066a3.05655,3.05655,0,0,0,.47369,1.9219,1.77609,1.77609,0,0,0,1.46691.58328Z" transform="translate(-46.90186 -81.56255)"/><path class="cls-7" d="M543.32364,121.07212a27.641,27.641,0,1,1-22.93221-31.65539,27.63753,27.63753,0,0,1,22.93221,31.65539Z" transform="translate(-46.90186 -81.56255)"/><polygon class="cls-19" points="456.349 28.433 455.806 31.837 459.5 32.428 460.047 29.023 461.888 29.317 460.581 37.479 458.74 37.184 459.256 33.967 455.558 33.376 455.046 36.594 453.201 36.299 454.507 28.138 456.349 28.433 456.349 28.433"/><polygon class="cls-19" points="469.7 30.566 469.452 32.128 466.953 31.73 465.899 38.328 464.058 38.034 465.112 31.435 462.629 31.038 462.877 29.476 469.7 30.566 469.7 30.566"/><polygon class="cls-19" points="472.756 31.054 474.338 36.424 477.501 31.812 479.552 32.14 478.249 40.301 476.592 40.037 477.47 34.534 474.555 38.862 473.356 38.671 471.935 33.649 471.056 39.152 469.387 38.886 470.693 30.724 472.756 31.054 472.756 31.054"/><polygon class="cls-19" points="483.204 32.723 482.157 39.276 485.653 39.835 485.397 41.444 480.056 40.59 481.359 32.429 483.204 32.723 483.204 32.723"/><path class="cls-7" d="M78.35631,348.10923A22.124,22.124,0,1,0,98.53836,372.019a22.1241,22.1241,0,0,0-20.18205-23.90972Z" transform="translate(-46.90186 -81.56255)"/><path class="cls-19" d="M68.288,375.94374a5.96469,5.96469,0,0,1-4.47947-2.6164l1.68048-2.15681a4.5144,4.5144,0,0,0,2.88267,1.8451c1.06007.08976,1.76718-.50732,1.8707-1.73053l.58258-6.88917-4.91229-.41526.23074-2.73139,8.15251.68918-.8202,9.70193c-.25328,2.9961-2.2321,4.5532-5.18772,4.30335Z" transform="translate(-46.90186 -81.56255)"/><path class="cls-19" d="M81.89639,365.20887c-1.0803-.09131-1.84663.23339-1.912,1.0081-.22231,2.6294,7.50426,1.80462,7.04966,6.93925-.2361,2.7929-2.78945,4.09516-5.94832,3.82854a10.0544,10.0544,0,0,1-6.10642-2.79484l1.5055-2.52089a8.47662,8.47662,0,0,0,4.87407,2.56715c1.32482.11229,2.16066-.30943,2.23516-1.18577.2273-2.69091-7.50806-1.76377-7.08058-6.81889.21889-2.58814,2.57858-4.031,5.88068-3.75213a10.23544,10.23544,0,0,1,5.29008,2.00785l-1.46882,2.56444a9.98015,9.98015,0,0,0-4.319-1.84281Z" transform="translate(-46.90186 -81.56255)"/><path class="cls-5" d="M667.20233,568.41421a7.0985,7.0985,0,0,1-7.09781,7.09776H621.85375a7.09928,7.09928,0,0,1-7.10159-7.09776V532.5051a7.10009,7.10009,0,0,1,7.10159-7.10159h38.247a7.10012,7.10012,0,0,1,7.10158,7.10159v35.90911Z" transform="translate(-46.90186 -81.56255)"/><path class="cls-19" d="M644.31605,535.92408h-6.65853v3.93856a10.84568,10.84568,0,0,0-1.80686.74873l-2.78866-2.79248-4.71023,4.70639,2.7887,2.78868a10.90608,10.90608,0,0,0-.75255,1.8069h-3.94621v6.65844h3.93856a10.99672,10.99672,0,0,0,.74873,1.80313l-2.79248,2.79248,4.71019,4.71019,2.78488-2.78866a11.19806,11.19806,0,0,0,1.8069.75255v3.94619h6.65844v-3.93852a11.5372,11.5372,0,0,0,1.80691-.74873l2.79252,2.79246,4.70637-4.71018-2.78484-2.78871a10.99619,10.99619,0,0,0,.74873-1.80308h3.94612v-6.65848h-3.93847a11.04678,11.04678,0,0,0-.74873-1.80691l2.79243-2.79248-4.71014-4.70641L646.123,540.619a11.39264,11.39264,0,0,0-1.80691-.75255v-3.94239Zm-1.29125,1.2912v3.60239l.90541.28269a10.256,10.256,0,0,1,1.593.66469l.84041.44315.67234-.67232,1.87191-1.87189,2.88029,2.87656L649.91248,544.42l-.6723.6685.43933.84427a10.03533,10.03533,0,0,1,.66087,1.593l.28268.90917h3.59852v4.06843h-3.60234l-.28651.90537a9.43849,9.43849,0,0,1-.6647,1.593l-.43937.8442.67235.67237,1.87191,1.87185-2.87656,2.88033-1.87951-1.87947-.66852-.67232-.84428.4393a10.04557,10.04557,0,0,1-1.593.6647l-.90919.28271v3.59474h-4.06843v-3.59859l-.90532-.28651a9.76,9.76,0,0,1-1.593-.6647l-.84418-.43932-.67235.67237-1.87186,1.87184-2.88039-2.88038,1.87947-1.87567.66861-.67236-.43554-.84041a9.70158,9.70158,0,0,1-.6647-1.593l-.28268-.90919h-3.59474v-4.07218h3.59856l.28651-.90537a9.56457,9.56457,0,0,1,.6647-1.593l.43932-.8404-.67235-.67232-1.87186-1.87569,2.87656-2.87659,1.87946,1.87569.67235.67235.84045-.43932a9.68425,9.68425,0,0,1,1.59291-.66088l.90924-.28268v-3.59857h4.07221" transform="translate(-46.90186 -81.56255)"/><path class="cls-19" d="M640.97727,543.46116a6.99846,6.99846,0,1,0,6.99843,6.99848,6.99743,6.99743,0,0,0-6.99843-6.99848Zm0,1.29123a5.70533,5.70533,0,1,1-5.70341,5.70725,5.71269,5.71269,0,0,1,5.70341-5.70725" transform="translate(-46.90186 -81.56255)"/><path class="cls-14" d="M668.2911,194.39923a27.31192,27.31192,0,1,1-27.31383-27.31192,27.31239,27.31239,0,0,1,27.31383,27.31192Z" transform="translate(-46.90186 -81.56255)"/><path class="cls-19" d="M630.91887,191.20678a3.84172,3.84172,0,0,0,0,7.683,4.82529,4.82529,0,0,0,3.24328-1.46155l1.658,1.8008a7.30738,7.30738,0,0,1-5.04635,2.22827,6.35122,6.35122,0,1,1,.10688-12.69274,7.10267,7.10267,0,0,1,4.92035,2.06781l-1.63884,1.9968a4.515,4.515,0,0,0-3.24328-1.62239Z" transform="translate(-46.90186 -81.56255)"/><path class="cls-19" d="M641.8215,191.13534c-.94356,0-1.5854.33846-1.5854,1.01612,0,2.29972,6.64705,1.01616,6.628,5.50862,0,2.4426-2.12028,3.76132-4.88221,3.76132a8.75256,8.75256,0,0,1-5.50858-1.97847l1.12314-2.29972a7.38943,7.38943,0,0,0,4.41985,1.8715c1.15751,0,1.8527-.42748,1.8527-1.19379,0-2.35395-6.647-.98105-6.647-5.402,0-2.26381,1.94065-3.69025,4.82863-3.69025a8.92476,8.92476,0,0,1,4.7446,1.35537l-1.08877,2.33488a8.69924,8.69924,0,0,0-3.885-1.28356Z" transform="translate(-46.90186 -81.56255)"/><path class="cls-19" d="M653.17105,191.13534c-.94356,0-1.58531.33846-1.58531,1.01612,0,2.29972,6.647,1.01616,6.62794,5.50862,0,2.4426-2.12028,3.76132-4.88221,3.76132a8.7608,8.7608,0,0,1-5.50858-1.97847l1.12314-2.29972a7.38943,7.38943,0,0,0,4.41985,1.8715c1.15751,0,1.85279-.42748,1.85279-1.19379,0-2.35395-6.647-.98105-6.647-5.402,0-2.26381,1.94064-3.69025,4.82867-3.69025a8.92472,8.92472,0,0,1,4.74456,1.35537l-1.08877,2.33488a8.69894,8.69894,0,0,0-3.885-1.28356Z" transform="translate(-46.90186 -81.56255)"/><path class="cls-14" d="M446.75492,167.54417A22.41261,22.41261,0,1,1,424.63257,144.844a22.41393,22.41393,0,0,1,22.12235,22.70022Z" transform="translate(-46.90186 -81.56255)"/><polygon class="cls-19" points="365.128 80.586 367.019 84.043 369.009 80.637 371.489 80.668 368.329 86 371.607 91.897 369.105 91.865 366.966 88.1 364.773 91.809 362.32 91.777 365.72 86.079 362.691 80.554 365.128 80.586 365.128 80.586"/><polygon class="cls-19" points="375.274 80.718 377.887 87.616 380.668 80.787 382.999 80.818 382.854 92.043 380.97 92.019 381.07 84.449 378.522 90.848 377.158 90.831 374.778 84.368 374.678 91.937 372.784 91.913 372.933 80.687 375.274 80.718 375.274 80.718"/><polygon class="cls-19" points="387.144 80.871 387.025 89.884 391.002 89.935 390.971 92.148 384.905 92.07 385.05 80.844 387.144 80.871 387.144 80.871"/><path class="cls-2" d="M131.24085,269.84615a22.65087,22.65087,0,1,1-28.21232-15.17237,22.651,22.651,0,0,1,28.21232,15.17237Z" transform="translate(-46.90186 -81.56255)"/><path class="cls-19" d="M99.069,275.652c-.65861.19786-1.02.61769-.84808,1.19033.58295,1.93949,4.892-.53636,6.01936,3.25857a3.22531,3.22531,0,0,1-2.45022,4.19677,5.74821,5.74821,0,0,1-4.34158-.51533l.19979-2.17629a4.93881,4.93881,0,0,0,3.55578.65318c.80756-.2429,1.18423-.7491.9898-1.39547-.5971-1.98607-4.88326.565-6.00486-3.1653a3.18428,3.18428,0,0,1,2.43112-4.12537,5.69155,5.69155,0,0,1,3.649.15015l-.16582,2.19731A5.60558,5.60558,0,0,0,99.069,275.652Z" transform="translate(-46.90186 -81.56255)"/><path class="cls-19" d="M110.03384,279.58936c1.45355-.437,2.2-2.2363,1.64381-4.0856-.55583-1.85051-2.16143-2.90943-3.615-2.4724-1.46616.44082-2.25921,2.22063-1.703,4.0711.55581,1.84892,2.22021,2.92393,3.67415,2.4869ZM116.117,281.303a3.67381,3.67381,0,0,1-2.11177,1.89822c-1.1808.35492-2.45365-.23032-3.49655-1.49172-2.6202.70554-5.25761-.99406-6.16183-4.0024-.92257-3.06864.40759-5.94525,3.06677-6.74476,2.65921-.79918,5.35887.882,6.27685,3.93623a5.53275,5.53275,0,0,1-1.44745,5.912,1.62767,1.62767,0,0,0,1.42.4424,2.70578,2.70578,0,0,0,1.27973-1.28626L116.117,281.303Z" transform="translate(-46.90186 -81.56255)"/><polygon class="cls-19" points="68.535 187.07 71.076 195.523 74.804 194.403 75.428 196.48 69.737 198.19 66.572 187.66 68.535 187.07 68.535 187.07"/><path class="cls-2" d="M353.64113,104.36061A27.11326,27.11326,0,1,1,321.25,83.84049a27.11288,27.11288,0,0,1,32.39115,20.52012Z" transform="translate(-46.90186 -81.56255)"/><path class="cls-19" d="M317.52728,109.56174c-.28689-1.23851-1.224-1.67517-2.62328-1.352l-2.08157.48134.86981,3.76551,2.082-.48134c1.39892-.32278,2.046-1.14221,1.75305-2.41354Zm2.36428-.63c.59822,2.59-.67773,4.45842-3.50612,5.11207l-2.20879.51039.7346,3.178-2.51059.57945L309.83127,107.189l4.719-1.08989c2.82879-.6536,4.77321.37017,5.34129,2.83263Z" transform="translate(-46.90186 -81.56255)"/><polygon class="cls-19" points="276.209 22.559 277.28 27.199 282.317 26.035 281.245 21.396 283.757 20.816 286.325 31.939 283.815 32.519 282.801 28.133 277.765 29.296 278.778 33.682 276.267 34.262 273.698 23.139 276.209 22.559 276.209 22.559"/><path class="cls-19" d="M340.79445,104.188c-.28688-1.23888-1.224-1.67549-2.62328-1.35233l-2.08157.48059.86981,3.76584,2.08162-.481c1.39929-.32279,2.04641-1.14221,1.75342-2.41313Zm2.36463-.63037c.59787,2.59005-.678,4.45888-3.50647,5.11211l-2.20878.5096.73462,3.178-2.51019.58024-2.56981-11.12264,4.719-1.09026c2.82841-.65327,4.77286.37054,5.34163,2.833Z" transform="translate(-46.90186 -81.56255)"/><path class="cls-5" d="M688.92737,326.86977a15.80191,15.80191,0,1,1-15.80381-15.80265,15.80281,15.80281,0,0,1,15.80381,15.80265Z" transform="translate(-46.90186 -81.56255)"/><path class="cls-19" d="M669.13151,325.26226a2.23667,2.23667,0,0,0,.03059,4.473,2.80651,2.80651,0,0,0,1.88329-.86293l.97032,1.04251a4.244,4.244,0,0,1-2.92627,1.31564,3.69786,3.69786,0,1,1,.01535-7.39,4.14,4.14,0,0,1,2.87273,1.18576l-.94743,1.16814a2.6405,2.6405,0,0,0-1.89858-.93209Z" transform="translate(-46.90186 -81.56255)"/><path class="cls-19" d="M676.852,326.72843l-1.57767.01031-.18718,1.56852,1.57766-.00989.18719-1.56894Zm1.14985-.00723-.17571,1.5689,1.402-.00877-.11845,1.15247-1.421.00923-.1987,1.6617-1.14982.00727.19483-1.66174-1.57771.00994-.19483,1.66174-1.16133.00764.19493-1.66211-1.4097.00877.11462-1.15289,1.43255-.00882.17953-1.56889-1.402.00876.11471-1.15214,1.42485-.00877.2063-1.73509,1.15368-.00727-.21012,1.73472,1.57771-.00994.2063-1.73472,1.16506-.00727-.20621,1.73472,1.4096-.00877-.107,1.15252-1.444.00881Z" transform="translate(-46.90186 -81.56255)"/><path class="cls-7" d="M167.74511,514.98223a24.32994,24.32994,0,1,1-24.33-24.33035,24.329,24.329,0,0,1,24.33,24.33035Z" transform="translate(-46.90186 -81.56255)"/><path class="cls-19" d="M138.29736,510.5738a3.79753,3.79753,0,0,0,.04813,7.59439,4.76989,4.76989,0,0,0,3.19934-1.46691L143.194,518.47a7.21812,7.21812,0,0,1-4.97268,2.23478,6.27736,6.27736,0,1,1,.02676-12.54527,7.00682,7.00682,0,0,1,4.876,2.01317l-1.60825,1.98268a4.46776,4.46776,0,0,0-3.21847-1.58155Z" transform="translate(-46.90186 -81.56255)"/><path class="cls-19" d="M151.40073,513.06072l-2.67674.01912-.31822,2.66261,2.67714-.01532.31782-2.66641Zm1.95743-.0115-.301,2.66644,2.37839-.01907-.19712,1.95972-2.41506.01525-.33542,2.82307-1.95627.01147.33463-2.823-2.67674.01527-.33617,2.82307-1.97271.01525.33466-2.823-2.39791.01527.1998-1.95972,2.4315-.01527.301-2.66266-2.37878.01532.19863-1.95592,2.41469-.0153.3503-2.94527,1.95744-.01532-.35184,2.94537,2.67713-.01532.35145-2.9453,1.97425-.01147-.35145,2.94532,2.39788-.01527-.183,1.95592-2.44832.01522Z" transform="translate(-46.90186 -81.56255)"/><path class="cls-2" d="M600.824,335.96969a25.22517,25.22517,0,1,0,25.22419,25.22456A25.22372,25.22372,0,0,0,600.824,335.96969Z" transform="translate(-46.90186 -81.56255)"/><path class="cls-19" d="M591.86584,358.58858a3.9111,3.9111,0,0,0,0,7.82168,4.90891,4.90891,0,0,0,3.30436-1.48753l1.68855,1.83363a7.446,7.446,0,0,1-5.13808,2.26838,6.46576,6.46576,0,1,1,.1108-12.92152,7.23126,7.23126,0,0,1,5.00817,2.10489l-1.66944,2.03265a4.59749,4.59749,0,0,0-3.30436-1.65218Z" transform="translate(-46.90186 -81.56255)"/><polygon class="cls-19" points="558.842 282.344 555.737 282.344 555.737 285.41 553.96 285.41 553.96 282.344 550.855 282.344 550.855 280.493 553.96 280.493 553.96 277.408 555.737 277.408 555.737 280.493 558.842 280.493 558.842 282.344 558.842 282.344"/><polygon class="cls-19" points="568.018 282.344 564.916 282.344 564.916 285.41 563.136 285.41 563.136 282.344 560.034 282.344 560.034 280.493 563.136 280.493 563.136 277.408 564.916 277.408 564.916 280.493 568.018 280.493 568.018 282.344 568.018 282.344"/><path class="cls-2" d="M245.28428,82.41714c-1.2782-.10968-2.53657-.18644-3.73912-.22766l.021-.62693c1.21365.04165,2.48266.1192,3.7716.22962l-.05351.625Zm-12.4505.131-.08025-.62156c1.21176-.15626,2.48042-.26818,3.77125-.33272l.03171.62609c-1.27479.06421-2.5274.17459-3.72271.32819Zm21.129,1.00619c-1.35345-.2223-2.56785-.40836-3.7116-.56882l.08708-.62114c1.14872.1612,2.36769.348,3.72578.5711l-.10126.61886ZM224.39474,84.603l-.22192-.586a34.88659,34.88659,0,0,1,3.618-1.14492l.15662.60706a34.37869,34.37869,0,0,0-3.55273,1.12384Zm38.21454.45536q-1.62392-.28021-3.24709-.57073l-.45994-.08175.10963-.61736.45957.08179c1.08147.19138,2.16294.38355,3.24481.56994l-.107.61811Zm8.69991,1.29577c-1.18-.13486-2.4032-.296-3.73986-.49318l.0913-.6204c1.32979.196,2.5465.35646,3.72.49095l-.07144.62263Zm8.2465.50923c-1.04326,0-2.1297-.02863-3.22952-.08515l.03245-.62613c1.08838.05577,2.16412.084,3.19707.084l.54438-.00191.00611.62645-.55049.00271Zm-62.67625,1.99409-.39806-.48395a24.524,24.524,0,0,1,3.11835-2.18435l.31824.54014a23.97549,23.97549,0,0,0-3.03853,2.12816ZM200.953,93.27159l-.10658-.61769c.92064-.15818,1.857-.30372,2.78446-.43247q.475-.06588.95391-.12679l.079.62151q-.475.06072-.94659.12647c-.92066.128-1.85088.27233-2.76424.429Zm20.959.4057a26.80518,26.80518,0,0,0-3.6016-.90993l.11271-.617a27.4876,27.4876,0,0,1,3.68642.93134l-.19753.59554Zm-29.50045,1.49135-.1654-.60473c1.21326-.33155,2.44563-.64138,3.66274-.92024l.14057.61126c-1.20908.27732-2.43341.58444-3.63791.91371Zm18.84045.23074-.539-.32009a25.55137,25.55137,0,0,1,1.97042-2.84792c-.991-.0187-1.99947-.00383-3.04926.04355l-.02863-.62608c1.3099-.06,2.55263-.06958,3.78689-.02523l-.02215.62687c-.04125-.00191-.08331-.00307-.12453-.00457l.1398.11463a24.85074,24.85074,0,0,0-2.13352,3.03884Zm-27.1599,2.46894-.22117-.58715c1.17161-.44123,2.36887-.86563,3.55768-1.25981l.19749.59475c-1.18119.39236-2.37038.81331-3.534,1.25221Zm45.23173.102a16.26472,16.26472,0,0,0-2.81543-2.1836l-.10315-.06225.32125-.53865.10851.0657a16.93178,16.93178,0,0,1,2.92429,2.26726l-.43547.45154Zm-53.2681,3.34834-.27275-.56462c1.13074-.54667,2.28405-1.07768,3.427-1.57734l.25137.57456c-1.13611.49663-2.28174,1.02376-3.40563,1.5674Zm32.31015,2.17591-.62151-.081a20.31048,20.31048,0,0,1,.85416-3.71925l.59554.196a19.76,19.76,0,0,0-.82819,3.60426Zm25.49128,1.7122a17.05691,17.05691,0,0,0-1.50284-3.367l.54242-.31519a17.70573,17.70573,0,0,1,1.55785,3.49122l-.59743.191Zm-65.49972.26128-.32129-.53865c1.07422-.641,2.176-1.27092,3.275-1.87182l.301.55007c-1.0918.59745-2.187,1.22321-3.25475,1.8604Zm-7.31476,4.79538-.3656-.50918c1.02151-.7331,2.06556-1.45436,3.10347-2.14387l.34686.52219c-1.03144.68531-2.06971,1.40237-3.08473,2.13086Zm47.80911,1.92344c-.06454-.1509-.12642-.30292-.18448-.45653a16.41044,16.41044,0,0,1-.86414-3.22835l.61923-.0997a15.79121,15.79121,0,0,0,.83092,3.10459q.08306.21894.17531.43359l-.57684.2464Zm25.599,1.64953-.58826-.21736a11.48531,11.48531,0,0,0,.69487-3.58024l.62687.02257a12.10833,12.10833,0,0,1-.73348,3.775ZM154.15352,115.656l-.40684-.47751c.95272-.811,1.933-1.61712,2.91475-2.39485l.38926.49122c-.97566.77363-1.95093,1.57431-2.89717,2.38114Zm60.64817,3.05031a15.645,15.645,0,0,1-3.04656-2.32107l.43968-.44693a15.04617,15.04617,0,0,0,2.92431,2.22707l-.31743.54093Zm13.54651,1.42951-.23379-.5822a10.15846,10.15846,0,0,0,3.08093-1.91883l.42288.4626a10.77794,10.77794,0,0,1-3.27,2.03843Zm-5.02115.92374a16.515,16.515,0,0,1-3.79988-.4569l.14554-.60967a15.85221,15.85221,0,0,0,3.65508.43927l-.00074.6273Zm-75.59705.5386-.44466-.44272c.88244-.88555,1.79392-1.76951,2.70961-2.626l.4282.45765c-.90993.85188-1.816,1.73052-2.69315,2.611Zm-5.9189,6.4472-.47865-.40491c.80909-.95769,1.6457-1.91272,2.4865-2.83874l.46415.42137c-.83544.92061-1.66708,1.8707-2.472,2.82228Zm-5.373,6.90987-.51039-.36447c.73043-1.02265,1.486-2.043,2.24623-3.03278l.49776.38164c-.75638.9844-1.50779,1.99866-2.2336,3.01561ZM131.6538,142.286l-.539-.32087c.64138-1.07809,1.3099-2.15763,1.98761-3.20928l.52715.33957c-.67351,1.04522-1.3382,2.11865-1.97576,3.19058Zm-4.15018,7.70552-.5646-.2735c.54513-1.12463,1.12-2.25691,1.70873-3.36624l.55394.29411c-.58526,1.10248-1.15639,2.22827-1.69807,3.34563Zm-3.46827,8.03372-.5864-.22347c.44543-1.17084.91951-2.349,1.40885-3.50152l.57684.24491c-.48591,1.14562-.95694,2.31609-1.39929,3.48008Zm-2.73673,8.30614-.60359-.16853c.33426-1.19682.70023-2.41276,1.08684-3.61344l.597.19217c-.38467,1.193-.74758,2.40095-1.0803,3.5898Zm-1.957,8.51841-.617-.11155c.22157-1.22815.47254-2.472.74532-3.69672l.61161.1364c-.27084,1.21631-.51956,2.45173-.74,3.67187Zm-1.133,8.66325-.625-.05078c.10163-1.24728.23113-2.51055.38506-3.754l.62231.07759c-.15281,1.23464-.28154,2.48877-.38238,3.72723Z" transform="translate(-46.90186 -81.56255)"/><path class="cls-2" d="M558.41305,112.57083l-.06108-.6238c1.11931-.11006,2.26535-.16546,3.40373-.16546l.38966.00234-.00769.62645-.382-.00149c-1.11931,0-2.2424.05419-3.34265.162Zm12.3314.98137c-1.20717-.30712-2.43724-.55581-3.65588-.74l.09546-.62c1.23776.18681,2.49077.44011,3.71318.7526l-.15276.60738Zm8.133,3.06449c-1.10779-.56267-2.25383-1.07842-3.40369-1.53225l.233-.58295c1.16515.46073,2.32648.98446,3.4534,1.55556l-.28269.55964Zm7.29646,4.73467c-.96268-.78161-1.97506-1.52842-3.00265-2.21914l.34764-.521c1.04671.70177,2.07435,1.46,3.04849,2.25308l-.39348.48708Zm6.10836,6.18288c-.764-.96842-1.58918-1.915-2.4487-2.81314l.45074-.43434c.87478.913,1.71145,1.87453,2.49068,2.85856l-.49272.38892Zm4.54973,7.3942a36.18137,36.18137,0,0,0-1.73048-3.299l.53856-.32013a36.41983,36.41983,0,0,1,1.76493,3.35748l-.573.2617Zm2.60152,8.27667a35.11612,35.11612,0,0,0-.8557-3.62688l.60351-.17645a35.267,35.267,0,0,1,.86718,3.69253l-.615.1108Zm1.13456,8.706-.6265-.03591c.042-.727.065-1.46458.065-2.19269,0-.51268-.01148-1.02536-.03059-1.53724l.6265-.0256c.01907.5207.03054,1.04177.03054,1.56321,0,.74-.02289,1.48981-.06491,2.22823Zm-1.47456,8.70648-.60356-.17114c.33995-1.19761.62646-2.42045.85188-3.63373l.615.1142c-.22533,1.2324-.51949,2.47394-.86331,3.69067Zm-3.29676,8.191-.55007-.2949c.58057-1.09027,1.11926-2.22446,1.6006-3.372l.57684.2429c-.489,1.16516-1.03523,2.31693-1.62737,3.424Zm-4.97762,7.29375-.47369-.40915c.80221-.934,1.57388-1.92377,2.29207-2.94221l.5157.361c-.72965,1.03528-1.51657,2.04146-2.33408,2.99038Zm-6.50949,5.96628-.3629-.51039a35.40737,35.40737,0,0,0,2.91093-2.32262l.41638.46945a35.78019,35.78019,0,0,1-2.96441,2.36356Z" transform="translate(-46.90186 -81.56255)"/><path class="cls-2" d="M642.20351,236.28565l-.54625-.30941a20.59856,20.59856,0,0,1,2.18892-3.12637l.47752.40528a19.83828,19.83828,0,0,0-2.12019,3.0305Zm-2.59387,8.1903-.62264-.06911a23.3369,23.3369,0,0,1,.722-3.73991l.6036.16965a22.52763,22.52763,0,0,0-.70293,3.63937Zm-.14512,8.75614a31.70826,31.70826,0,0,1-.54252-3.759l.62655-.05041a30.42959,30.42959,0,0,0,.531,3.68259l-.615.12684Zm2.86882,8.35613c-.5539-1.14146-1.05049-2.31692-1.48216-3.492l.59213-.21506a36.89662,36.89662,0,0,0,1.45167,3.4339l-.56164.27317Zm4.72935,7.45954c-.78692-.97415-1.53952-2.00482-2.23481-3.06337l.5234-.34457c.68382,1.04135,1.4249,2.05518,2.20039,3.01291l-.489.395Zm6.30319,6.18092c-.99317-.80184-1.95207-1.63577-2.85744-2.47963l.42781-.458c.894.83355,1.84519,1.65755,2.82694,2.44983l-.39731.48782Zm7.23532,5.03377c-1.10019-.66815-2.17367-1.35421-3.17836-2.03844l.35147-.51837c.997.67808,2.059,1.3577,3.15159,2.02049l-.3247.53632Zm7.72427,4.21737c-1.19952-.59782-2.29594-1.16357-3.3503-1.72968l.2942-.55241c1.05436.563,2.14308,1.12617,3.335,1.721l-.27886.56112Zm7.942,3.76323q-1.71337-.7856-3.4152-1.58154l.26361-.56765q1.70184.7965,3.41134,1.57887l-.25975.57032Zm7.96494,3.68679q-1.69611-.80853-3.40756-1.59487l.26361-.56961q1.71331.79075,3.41134,1.59836l-.26739.56612Zm7.78539,3.99928c-1.06582-.607-2.1774-1.20638-3.29676-1.78285l.28651-.55772c1.12692.58029,2.24618,1.18423,3.31966,1.79544l-.30941.54513Zm7.34608,4.7335c-.97793-.71856-2.017-1.43557-3.079-2.13161l.34377-.52489c1.07348.70251,2.11636,1.42569,3.10576,2.15035l-.37054.50615Zm6.65848,5.64694c-.85952-.85613-1.78406-1.71183-2.74673-2.54268l.40878-.47411c.97414.84008,1.9101,1.70572,2.78105,2.5721l-.4431.44469Zm5.543,6.70772c-.66469-1.01234-1.40582-2.02542-2.20421-3.01216l.489-.39386c.80981,1.00241,1.56246,2.03228,2.23858,3.061l-.52336.345Zm3.78571,7.79034a29.83832,29.83832,0,0,0-1.35612-3.45871l.56533-.26473a30.35734,30.35734,0,0,1,1.39057,3.53132l-.59978.19212Zm1.3638,8.5353a27.01721,27.01721,0,0,0-.24836-3.65663l.61508-.139.00765.05195a27.638,27.638,0,0,1,.25214,3.72228l-.62651.02141Zm-.764,8.72587-.596-.191a29.01587,29.01587,0,0,0,.90537-3.605l.61885.11308a29.57314,29.57314,0,0,1-.92826,3.68292Zm-3.78953,7.97338-.52722-.33846a35.41156,35.41156,0,0,0,1.84132-3.23563l.56155.28077a35.64925,35.64925,0,0,1-1.87565,3.29332Zm-5.56211,6.85405-.43937-.44389c.8863-.88433,1.73435-1.80919,2.52514-2.74818l.47752.403c-.79839.95349-1.66179,1.89173-2.56329,2.78907Zm-6.82659,5.59187-.3476-.5214c1.03142-.69183,2.04376-1.43371,3.01408-2.20421l.38966.49048c-.98175.78123-2.00943,1.5334-3.05614,2.23513Zm-7.76628,4.20329-.24449-.57759c1.14221-.48208,2.27682-1.02,3.38084-1.59832l.29029.55507c-1.11923.58635-2.26913,1.13185-3.42664,1.62084Zm-48.40085,1.878c-1.24154-.20822-2.47547-.42287-3.71319-.64218l.1108-.61732c1.23007.21815,2.46778.43322,3.7055.64064l-.10311.61886Zm39.98508.77241-.13747-.612c1.22246-.27541,2.4411-.59172,3.62146-.93973l.17571.60169c-1.19183.35184-2.42572.67118-3.6597.95Zm-31.29436.53637c-1.24527-.16126-2.4869-.33543-3.73226-.52033l.09168-.62035c1.24158.1849,2.4793.35828,3.72083.51874l-.08025.62194Zm22.58457.80412-.05731-.625c1.25683-.11043,2.50979-.25443,3.72074-.42785l.0879.62039c-1.22237.17492-2.4869.32051-3.75133.43242Zm-13.83263.06953c-1.21868-.081-2.48307-.18415-3.759-.30674l.06109-.62464c1.2683.12269,2.52513.22542,3.74.306l-.042.62534Zm6.72718.23149c-.56537,0-1.13074-.00532-1.69994-.01567l.01148-.62688q1.8795.03385,3.74755-.00877l.0153.62688q-1.0372.02406-2.07439.02444Z" transform="translate(-46.90186 -81.56255)"/><path class="cls-2" d="M100.5252,393.24273c-.56652-1.12687-1.09749-2.2844-1.57925-3.43811l.57875-.24064c.476,1.14225,1.00089,2.28444,1.56053,3.39611l-.56.28264Zm4.58607,7.5333c-.73768-1.02-1.44861-2.07432-2.11291-3.14012l.53173-.33235c.65707,1.05433,1.36,2.09724,2.08924,3.10188l-.50806.37059Zm5.70341,6.72342c-.88665-.89777-1.75114-1.82985-2.56977-2.77341l.47367-.4126c.80949.936,1.66521,1.85657,2.54269,2.74666l-.44659.43935Zm6.65044,5.79128c-1.00507-.75257-1.99983-1.54714-2.9556-2.36083l.40644-.47749c.94624.806,1.92993,1.593,2.92506,2.33407l-.3759.50425Zm7.43929,4.73313c-1.10477-.59209-2.2065-1.22626-3.27459-1.891l.33081-.531c1.057.657,2.14693,1.28356,3.23985,1.87184l-.29607.5501Zm8.06962,3.55655c-1.177-.41262-2.36274-.87484-3.52484-1.37148l.24606-.57677c1.14983.49274,2.323.94736,3.4866,1.35607l-.20782.59218Zm8.5307,2.24239c-1.22892-.21775-2.47352-.48514-3.70015-.79077l.15281-.61126c1.21211.30568,2.44218.56922,3.65585.78317l-.10851.61886Z" transform="translate(-46.90186 -81.56255)"/><path class="cls-2" d="M390.17516,95.95486l-.07641-.62231c1.28743-.16,2.55564-.27047,3.7705-.32778l.03055.62614c-1.19957.05693-2.45253.16577-3.72464.32395Zm12.38868.25517a34.61682,34.61682,0,0,0-3.69407-.50083l.04962-.625a35.21815,35.21815,0,0,1,3.7628.51l-.11835.61582Zm-20.966,1.405-.152-.60892c1.303-.32508,2.50637-.60053,3.67917-.84237l.126.61434c-1.16511.2395-2.357.51342-3.65318.837Zm29.12193,1.46426a25.72167,25.72167,0,0,0-3.38084-1.54181l.2216-.58752a26.39649,26.39649,0,0,1,3.461,1.57962l-.3018.54971Zm-37.56743.8847-.17608-.60165c1.20258-.35216,2.40779-.7048,3.6161-1.04862l.17156.60319c-1.2068.343-2.41052.69566-3.61158,1.04708Zm44.11894,4.659a19.52179,19.52179,0,0,0-2.50989-2.71344l.41638-.4679a20.00355,20.00355,0,0,1,2.59392,2.80129l-.50041.38005Zm3.57175,7.78466a18.374,18.374,0,0,0-1.09632-3.52713l.57684-.24445a18.77276,18.77276,0,0,1,1.13074,3.64777l-.61126.12381Zm10.81859,6.25427a36.61642,36.61642,0,0,0-3.72083-.27047l.01534-.62646a37.03052,37.03052,0,0,1,3.78192.27467l-.07643.62226Zm8.41191,2.11906a34.5859,34.5859,0,0,0-3.53361-1.164l.16046-.60547a34.75679,34.75679,0,0,1,3.55651,1.16743l-.06492.311-.11844.29108Zm-19.29159.31589-.58066-.233c.03059-.08287.065-.16541.0955-.24906a13.68612,13.68612,0,0,0,.49663-1.66711q-.75068.13529-1.48985.30139l-.13752-.612c.58067-.13066,1.17276-.24757,1.76489-.3503.06114-.32512.107-.6536.14517-.98483l.62268.06953c-.03055.27121-.06878.54056-.1108.80833q.659-.10088,1.318-.178l.07256.6231c-.50424.05843-1.01234.12834-1.51662.20929a14.66865,14.66865,0,0,1-.5768,1.99717q-.05156.133-.10315.26552Zm-9.619,1.1361-.29416-.5539a32.40405,32.40405,0,0,1,3.45718-1.57425l.22542.58523a31.99287,31.99287,0,0,0-3.38844,1.54292Zm36.6005,2.60535c-1.03523-.69949-2.10493-1.35462-3.186-1.94676l.30563-.5497c1.09259.60165,2.18132,1.26672,3.23185,1.9773l-.35147.51916Zm-43.56461,2.52509-.44693-.442a28.60587,28.60587,0,0,1,2.85744-2.51059l.382.497a27.77732,27.77732,0,0,0-2.79252,2.45556Zm10.77657.38047-.32092-.53865a14.07917,14.07917,0,0,0,2.88038-2.27444l.4508.437a14.66533,14.66533,0,0,1-3.01026,2.3761Zm-6.94116,1.99638a11.344,11.344,0,0,1-1.677-.123l.09168-.62a11.377,11.377,0,0,0,3.64436-.06878l.1108.61732a12.45339,12.45339,0,0,1-2.1698.19446Zm46.40676.67887c-.8786-.8924-1.79544-1.75151-2.72757-2.55377l.40878-.47481c.94356.81327,1.87569,1.68426,2.76576,2.58846l-.447.44012Zm5.52009,6.736c-.70293-1.02838-1.44784-2.04072-2.21951-3.0068l.489-.3912c.7831.9783,1.53952,2.00291,2.25,3.0443l-.51953.3537Zm4.30141,7.58409c-.51953-1.125-1.08872-2.24814-1.68846-3.33686l.55007-.30293c.60744,1.10211,1.18045,2.23779,1.70763,3.37655l-.56924.26324Zm3.0179,8.18308c-.32852-1.15676-.69524-2.31119-1.08872-3.43242l-.04966-.13523.59213-.20546.04584.13062c.40109,1.13535.77167,2.30237,1.104,3.471l-.60361.17151Zm1.79931,8.54177c-.17576-1.2427-.38966-2.48461-.63038-3.69062l.61508-.123c.24445,1.21747.4584,2.47086.638,3.72536l-.62268.08827Zm.71818,8.70755c-.03441-1.26214-.0955-2.52089-.1834-3.74219l.6265-.04579c.0879,1.23081.149,2.50023.18341,3.77236l-.62651.01562Zm.39726,8.78781-.62655-.04663c.09555-1.26024.16433-2.51973.20248-3.74373l.62655.02145c-.042,1.232-.1108,2.50023-.20248,3.76891Zm-1.03906,8.742-.61885-.10012c.1986-1.23618.37818-2.48574.531-3.71273l.62268.07751c-.15282,1.23505-.33617,2.49147-.53483,3.73534Z" transform="translate(-46.90186 -81.56255)"/></g></g></svg>